<svg width="20" height="20" viewBox="0 0 20 20" fill="none" xmlns="http://www.w3.org/2000/svg">
<path d="M15.8226 14.4086L16.1736 17.2526C16.2636 17.9996 15.4626 18.5216 14.8236 18.1346L11.0525 15.8936C10.6385 15.8936 10.2335 15.8666 9.83754 15.8126C10.5035 15.0296 10.8995 14.0396 10.8995 12.9686C10.8995 10.4126 8.68553 8.34257 5.94949 8.34257C4.90548 8.34257 3.94247 8.63957 3.14147 9.16157C3.11447 8.93657 3.10547 8.71157 3.10547 8.47757C3.10547 4.38253 6.66049 1.06152 11.0525 1.06152C15.4446 1.06152 18.9996 4.38253 18.9996 8.47757C18.9996 10.9076 17.7486 13.0586 15.8226 14.4086Z" stroke="#ACB9C9" stroke-width="1.5" stroke-linecap="round" stroke-linejoin="round"/>
<path d="M10.9001 12.9687C10.9001 14.0397 10.5041 15.0298 9.83805 15.8128C8.94705 16.8928 7.53404 17.5857 5.95003 17.5857L3.60102 18.9807C3.20501 19.2238 2.70101 18.8907 2.75501 18.4317L2.98001 16.6588C1.774 15.8218 1 14.4807 1 12.9687C1 11.3847 1.84601 9.98978 3.14201 9.16178C3.94302 8.63978 4.90602 8.34277 5.95003 8.34277C8.68605 8.34277 10.9001 10.4127 10.9001 12.9687Z" stroke="#ACB9C9" stroke-width="1.5" stroke-linecap="round" stroke-linejoin="round"/>
</svg>
