<svg width="21" height="20" viewBox="0 0 21 20" fill="none" xmlns="http://www.w3.org/2000/svg">
<path d="M8.26915 12.5584H4.67798C1.44592 12.5584 0 11.1351 0 7.95372V4.60471C0 1.42324 1.44592 0 4.67798 0H8.08014C11.3122 0 12.7581 1.42324 12.7581 4.60471V8.13972C12.7581 8.52112 12.4463 8.82811 12.0588 8.83741C9.79067 8.87462 9.01574 9.64673 8.97793 11.87C8.96848 12.2514 8.65662 12.5584 8.26915 12.5584ZM4.67798 1.39538C2.23976 1.39538 1.41757 2.20465 1.41757 4.60471V7.95372C1.41757 10.3537 2.23976 11.163 4.67798 11.163H7.59817C7.82498 8.89323 9.03464 7.71184 11.3405 7.47928V4.60471C11.3405 2.20465 10.5184 1.39538 8.08014 1.39538H4.67798Z" fill="#ACB9C9"/>
<path d="M3.73066 5.00391C3.5133 5.00391 3.28649 4.90163 3.15418 4.70627C2.92737 4.38999 3.00297 3.95273 3.32429 3.72947C4.06142 3.21783 5.05371 3.20851 5.8003 3.71085C6.12161 3.9248 6.20668 4.36206 5.98932 4.67835C5.77195 4.99463 5.32777 5.07831 5.00646 4.86435C4.7513 4.69691 4.41109 4.69691 4.15593 4.87366C4.01417 4.96669 3.87241 5.00391 3.73066 5.00391Z" fill="#ACB9C9"/>
<path d="M7.51386 5.00391C7.2965 5.00391 7.06969 4.90163 6.93738 4.70627C6.71057 4.38999 6.78617 3.95273 7.10749 3.72947C7.84463 3.21783 8.8369 3.20851 9.58349 3.71085C9.90481 3.9248 9.98986 4.36206 9.7725 4.67835C9.55514 4.99463 9.11097 5.07831 8.78965 4.86435C8.53449 4.69691 8.19429 4.69691 7.93913 4.87366C7.79737 4.96669 7.65562 5.00391 7.51386 5.00391Z" fill="#ACB9C9"/>
<path d="M6.53076 10.1594H4.33825C3.66727 10.1594 3.11914 9.61978 3.11914 8.9593C3.11914 7.19185 4.58396 5.75 6.37955 5.75C7.11668 5.75 7.84437 6.00106 8.42087 6.45688C8.72328 6.69875 8.77998 7.13601 8.53427 7.43369C8.28856 7.73138 7.84437 7.77789 7.54195 7.54532C7.21119 7.28485 6.81427 7.14538 6.389 7.14538C5.44395 7.14538 4.65957 7.85236 4.55561 8.76404H6.54021C6.92767 8.76404 7.24899 9.08033 7.24899 9.46173C7.24899 9.84313 6.91822 10.1594 6.53076 10.1594Z" fill="#ACB9C9"/>
<path d="M15.6426 19.9998H12.2405C9.00842 19.9998 7.5625 18.5765 7.5625 15.3951V11.8601C7.6192 8.8926 9.03677 7.49722 12.042 7.44141H15.6426C18.8747 7.44141 20.3206 8.86469 20.3206 12.0462V15.3951C20.3206 18.5765 18.8747 19.9998 15.6426 19.9998ZM12.0515 8.83679C9.80226 8.874 9.01787 9.64611 8.98007 11.8694V15.3951C8.98007 17.7951 9.80226 18.6045 12.2405 18.6045H15.6426C18.0809 18.6045 18.903 17.7951 18.903 15.3951V12.0462C18.903 9.64611 18.0809 8.83679 15.6426 8.83679H12.0515Z" fill="#ACB9C9"/>
<path d="M12.1342 12.4468C11.6901 12.4468 11.2554 12.3165 10.8868 12.0561C10.5655 11.8328 10.4899 11.3957 10.7167 11.0794C10.9435 10.7631 11.3877 10.6886 11.709 10.9119C11.9641 11.0886 12.3044 11.0886 12.5595 10.9212C12.8808 10.7072 13.325 10.7816 13.5424 11.1072C13.7597 11.4235 13.6841 11.8607 13.3534 12.0747C12.9848 12.3259 12.5595 12.4468 12.1342 12.4468Z" fill="#ACB9C9"/>
<path d="M15.9135 12.4468C15.4694 12.4468 15.0347 12.3165 14.6661 12.0561C14.3448 11.8328 14.2692 11.3957 14.496 11.0794C14.7228 10.7631 15.167 10.6886 15.4883 10.9119C15.7434 11.0886 16.0837 11.0886 16.3388 10.9212C16.6601 10.7072 17.1043 10.7816 17.3217 11.1072C17.539 11.4235 17.4634 11.8607 17.1327 12.0747C16.7641 12.3259 16.3388 12.4468 15.9135 12.4468Z" fill="#ACB9C9"/>
<path d="M13.942 17.6008C12.1465 17.6008 10.6816 16.1588 10.6816 14.3913C10.6816 13.7309 11.2298 13.1914 11.9007 13.1914H15.9833C16.6543 13.1914 17.2025 13.7309 17.2025 14.3913C17.2025 16.1588 15.7376 17.6008 13.942 17.6008ZM12.1087 14.5868C12.2032 15.4984 12.9876 16.2054 13.942 16.2054C14.8965 16.2054 15.6715 15.4984 15.7754 14.5868H12.1087Z" fill="#ACB9C9"/>
</svg>
