<svg width="26" height="26" viewBox="0 0 26 26" fill="none" xmlns="http://www.w3.org/2000/svg">
<path d="M20.7632 18.7965L21.2312 22.5886C21.3512 23.5846 20.2832 24.2807 19.4311 23.7647L14.403 20.7766C13.851 20.7766 13.3109 20.7406 12.7829 20.6686C13.671 19.6245 14.199 18.3045 14.199 16.8765C14.199 13.4684 11.2469 10.7083 7.59875 10.7083C6.20671 10.7083 4.92267 11.1043 3.85464 11.8003C3.81864 11.5003 3.80664 11.2003 3.80664 10.8883C3.80664 5.42811 8.54678 1 14.403 1C20.2592 1 24.9993 5.42811 24.9993 10.8883C24.9993 14.1284 23.3312 16.9965 20.7632 18.7965Z" stroke="#7F8792" stroke-width="1.5" stroke-linecap="round" stroke-linejoin="round"/>
<path d="M14.2004 16.877C14.2004 18.3051 13.6724 19.6252 12.7843 20.6693C11.5963 22.1093 9.71225 23.0332 7.60019 23.0332L4.4681 24.8933C3.94008 25.2173 3.26807 24.7733 3.34007 24.1612L3.64008 21.7973C2.03203 20.6813 1 18.8931 1 16.877C1 14.765 2.12803 12.905 3.85608 11.801C4.92411 11.105 6.20815 10.709 7.60019 10.709C11.2483 10.709 14.2004 13.4689 14.2004 16.877Z" stroke="#7F8792" stroke-width="1.5" stroke-linecap="round" stroke-linejoin="round"/>
</svg>
